<?xml version="1.0" standalone="no"?>
<!DOCTYPE svg PUBLIC "-//W3C//DTD SVG 20010904//EN"
 "http://www.w3.org/TR/2001/REC-SVG-20010904/DTD/svg10.dtd">
<svg version="1.0" xmlns="http://www.w3.org/2000/svg"
 width="2000.000000pt" height="2000.000000pt" viewBox="0 0 2000.000000 2000.000000"
 preserveAspectRatio="xMidYMid meet">

<g transform="translate(0.000000,2000.000000) scale(0.100000,-0.100000)"
fill="#000000" stroke="none">
<path d="M3694 12871 c-55 -25 -111 -94 -131 -160 -21 -73 -7 -131 53 -228 25
-40 42 -77 39 -83 -3 -5 -30 -10 -58 -10 -168 0 -501 -51 -691 -106 -581 -169
-994 -499 -1236 -989 -118 -238 -196 -536 -216 -825 l-7 -100 -134 0 c-160 0
-214 -11 -248 -52 -20 -23 -25 -41 -25 -83 0 -65 31 -109 88 -125 26 -8 840
-10 2692 -8 2615 3 2655 3 2684 23 53 35 70 108 40 171 -28 59 -58 68 -245 72
l-166 4 -7 106 c-15 232 -77 505 -159 705 -74 178 -199 386 -259 430 -53 39
-152 16 -183 -43 -29 -55 -20 -100 36 -186 182 -278 271 -554 305 -936 l7 -78
-2082 0 -2082 0 5 53 c3 28 8 84 12 122 8 103 51 295 90 413 120 359 334 638
644 842 169 111 338 182 563 240 289 73 517 95 890 86 229 -5 272 -4 297 9 63
33 82 138 34 194 -34 40 -77 51 -211 51 -62 0 -113 2 -113 5 0 3 21 37 47 77
26 40 52 89 59 108 40 109 -18 244 -128 301 -49 25 -148 25 -204 0z"/>
<path d="M5342 12870 c-36 -22 -62 -72 -62 -118 0 -48 -27 -123 -65 -178 -20
-29 -89 -101 -153 -160 -144 -132 -196 -192 -233 -269 -69 -145 -39 -271 69
-290 78 -13 136 30 152 114 7 31 19 67 27 81 9 14 93 102 187 195 185 183 228
244 261 370 20 79 20 179 -1 215 -36 59 -119 78 -182 40z"/>
<path d="M6342 12854 c-32 -32 -40 -49 -46 -93 -4 -30 -12 -64 -18 -75 -6 -12
-69 -80 -139 -152 -135 -138 -165 -184 -176 -274 -10 -89 47 -160 130 -160 73
0 114 38 132 120 6 27 36 63 130 155 134 132 176 198 197 311 14 76 5 126 -31
166 -23 26 -37 32 -84 36 -55 4 -58 3 -95 -34z"/>
<path d="M9003 11639 c-285 -48 -493 -311 -493 -623 1 -231 97 -423 270 -541
239 -162 553 -127 751 82 220 234 237 612 38 870 -126 163 -352 248 -566 212z
m253 -234 c137 -67 224 -221 224 -395 0 -135 -48 -248 -142 -335 -71 -66 -133
-89 -238 -89 -211 1 -361 178 -361 426 0 128 32 223 103 303 104 119 278 157
414 90z"/>
<path d="M11245 11631 c-11 -5 -28 -17 -37 -28 -30 -33 -468 -1097 -468 -1137
0 -68 66 -104 129 -70 32 17 43 34 91 147 l55 127 265 0 266 0 53 -126 c43
-101 60 -130 85 -145 38 -23 49 -23 91 -4 34 17 55 50 55 91 0 36 -447 1095
-473 1122 -25 25 -81 36 -112 23z m118 -535 c43 -102 81 -194 84 -205 5 -21 3
-21 -171 -21 l-176 0 13 33 c8 17 47 110 87 205 40 94 75 172 79 172 3 0 41
-83 84 -184z"/>
<path d="M7404 11596 l-34 -34 0 -541 c0 -607 -2 -586 70 -615 50 -20 63 -20
99 -1 44 22 51 59 51 256 l0 179 195 0 c211 0 233 -4 273 -55 15 -19 22 -48
27 -113 9 -109 34 -178 82 -224 69 -67 145 -78 194 -29 43 43 39 82 -11 134
-44 44 -44 43 -60 162 -12 93 -36 148 -84 194 l-35 34 50 48 c30 30 62 75 82
116 27 59 32 79 32 148 0 97 -20 160 -73 230 -21 28 -59 65 -86 82 -86 59
-118 63 -444 63 l-294 0 -34 -34z m645 -200 c86 -82 78 -260 -14 -346 -26 -25
-28 -25 -236 -28 l-209 -3 0 206 0 206 214 -3 215 -3 30 -29z"/>
<path d="M9801 11601 c-24 -23 -31 -37 -31 -68 0 -48 9 -62 193 -305 83 -111
164 -220 180 -241 l27 -40 0 -243 0 -242 26 -31 c45 -54 131 -49 162 11 8 15
13 100 14 258 l3 235 193 274 c179 256 192 277 192 318 0 36 -6 50 -29 74 -33
33 -91 40 -126 15 -11 -7 -88 -113 -170 -234 -83 -122 -153 -221 -156 -222 -3
0 -79 101 -169 225 -90 124 -171 230 -181 235 -37 20 -95 12 -128 -19z"/>
<path d="M12033 11610 c-21 -13 -35 -31 -42 -57 -7 -24 -11 -219 -11 -543 0
-324 4 -519 11 -543 7 -26 21 -44 42 -57 30 -19 53 -20 345 -20 260 0 318 3
342 15 37 19 50 43 50 93 0 47 -33 86 -81 96 -18 3 -134 6 -260 6 l-229 0 0
481 0 481 -34 34 c-40 40 -83 45 -133 14z"/>
<path d="M1670 9814 c-193 -50 -347 -194 -406 -379 -61 -189 -19 -406 105
-547 23 -26 101 -93 174 -149 73 -57 202 -157 287 -224 577 -452 967 -645
1515 -748 107 -20 145 -20 1522 -24 1567 -4 1443 -9 1477 62 20 42 20 78 0
121 -35 74 76 68 -1439 75 -1466 6 -1439 5 -1675 59 -408 95 -731 274 -1320
729 -350 271 -361 281 -390 357 -57 151 11 319 158 391 78 38 184 39 258 3 28
-14 166 -109 305 -212 505 -373 765 -559 824 -588 108 -54 161 -60 581 -60
380 0 381 0 415 23 73 49 73 165 0 214 -34 23 -36 23 -386 23 -197 0 -376 4
-406 10 -162 31 -260 148 -261 312 -1 133 84 249 213 289 58 18 103 19 889 19
924 0 925 0 1059 -66 108 -53 214 -161 270 -274 41 -83 53 -132 67 -274 5 -50
11 -65 38 -92 43 -43 75 -46 431 -42 324 3 338 6 369 72 33 71 9 147 -58 177
-36 16 -69 19 -281 19 l-241 0 -18 71 c-78 305 -284 527 -586 631 l-95 33
-909 3 c-639 2 -926 -1 -963 -8 -30 -7 -90 -30 -135 -52 -153 -77 -255 -207
-309 -395 -14 -49 -25 -71 -32 -66 -31 18 -497 360 -530 389 -53 44 -162 100
-233 119 -72 19 -211 18 -284 -1z"/>
<path d="M9879 9505 c-132 -26 -244 -107 -291 -210 -33 -72 -33 -208 1 -283
48 -106 153 -175 316 -208 39 -8 95 -19 127 -25 130 -26 208 -91 208 -175 0
-92 -101 -156 -247 -155 -104 0 -164 19 -252 79 -86 60 -129 63 -173 13 -26
-29 -30 -39 -25 -75 10 -76 132 -165 277 -202 96 -25 266 -22 350 4 114 37
209 112 253 202 33 66 36 205 8 281 -47 124 -134 175 -404 234 -144 32 -195
53 -230 95 -32 37 -37 102 -11 151 18 37 95 74 169 84 86 10 220 -27 307 -85
51 -35 72 -37 115 -10 34 20 53 66 45 109 -13 64 -160 152 -299 176 -95 17
-157 17 -244 0z"/>
<path d="M12075 9501 c-11 -5 -28 -17 -37 -28 -30 -33 -468 -1097 -468 -1137
0 -68 66 -104 129 -70 32 17 43 34 91 147 l55 127 265 0 266 0 53 -126 c43
-101 60 -130 85 -145 38 -23 49 -23 91 -4 34 17 55 50 55 91 0 36 -447 1095
-473 1122 -25 25 -81 36 -112 23z m118 -535 c43 -102 81 -194 84 -205 5 -21 3
-21 -171 -21 l-176 0 13 33 c8 17 47 110 87 205 40 94 75 172 79 172 3 0 41
-83 84 -184z"/>
<path d="M15644 9491 c-27 -17 -55 -77 -263 -577 -248 -596 -249 -596 -200
-640 31 -28 93 -25 123 6 14 14 47 77 74 140 l49 115 268 0 268 0 49 -115 c27
-63 59 -125 70 -137 47 -50 127 -32 154 34 13 31 13 40 1 77 -16 47 -432 1038
-448 1068 -11 21 -66 48 -96 48 -10 0 -32 -9 -49 -19z m145 -553 c45 -102 81
-189 81 -192 0 -3 -79 -6 -175 -6 -96 0 -175 4 -175 8 0 4 32 82 71 172 39 91
77 181 85 200 18 43 10 56 113 -182z"/>
<path d="M7404 9466 l-34 -34 0 -541 c0 -607 -2 -586 70 -615 50 -20 63 -20
99 -1 44 22 51 59 51 256 l0 179 195 0 c211 0 233 -4 273 -55 15 -19 22 -48
27 -113 9 -109 34 -178 82 -224 69 -67 145 -78 194 -29 43 43 39 82 -11 134
-44 44 -44 43 -60 162 -12 93 -36 148 -84 194 l-35 34 50 48 c30 30 62 75 82
116 27 59 32 79 32 148 0 97 -20 160 -73 230 -21 28 -59 65 -86 82 -86 59
-118 63 -444 63 l-294 0 -34 -34z m645 -200 c86 -82 78 -260 -14 -346 -26 -25
-28 -25 -236 -28 l-209 -3 0 206 0 206 214 -3 215 -3 30 -29z"/>
<path d="M8645 9489 c-11 -7 -28 -21 -37 -33 -16 -19 -18 -65 -18 -568 0 -388
3 -554 11 -572 24 -52 49 -56 394 -56 336 0 360 3 385 49 20 39 12 91 -19 122
l-29 29 -261 0 -261 0 0 165 0 165 198 0 c108 0 214 5 234 10 47 13 68 43 68
96 0 35 -5 47 -31 68 l-31 26 -219 0 -219 0 0 155 0 155 259 0 259 0 31 26
c26 22 31 33 31 69 0 32 -7 52 -24 72 l-24 28 -339 2 c-235 2 -344 -1 -358 -8z"/>
<path d="M10618 9471 c-27 -24 -33 -36 -33 -71 0 -35 6 -47 33 -71 l32 -29
160 0 160 0 0 -485 0 -485 28 -30 c34 -38 84 -48 135 -26 67 28 67 26 67 555
l0 470 166 3 166 3 24 28 c26 30 32 83 14 118 -26 48 -41 49 -494 49 l-426 0
-32 -29z"/>
<path d="M12834 9466 l-34 -34 0 -373 c0 -413 5 -454 62 -561 145 -272 555
-330 776 -110 58 59 117 170 132 251 6 29 10 218 10 418 0 387 -2 407 -49 433
-26 13 -77 13 -103 -1 -45 -24 -48 -55 -48 -443 l0 -364 -33 -64 c-62 -120
-201 -182 -328 -145 -71 21 -144 84 -175 152 -24 50 -24 53 -24 413 0 389 -3
412 -51 446 -13 9 -41 16 -62 16 -31 0 -46 -7 -73 -34z"/>
<path d="M14084 9466 l-34 -34 0 -541 c0 -607 -2 -586 70 -615 50 -20 63 -20
99 -1 44 22 51 59 51 256 l0 179 195 0 c211 0 233 -4 273 -55 15 -19 22 -48
27 -113 9 -109 34 -178 82 -224 69 -67 145 -78 194 -29 43 43 39 82 -11 134
-44 44 -44 43 -60 162 -12 93 -36 148 -84 194 l-35 34 50 48 c30 30 62 75 82
116 27 59 32 79 32 148 0 97 -20 160 -73 230 -21 28 -59 65 -86 82 -86 59
-118 63 -444 63 l-294 0 -34 -34z m645 -200 c86 -82 78 -260 -14 -346 -26 -25
-28 -25 -236 -28 l-209 -3 0 206 0 206 214 -3 215 -3 30 -29z"/>
<path d="M16465 9491 c-11 -5 -29 -19 -40 -31 -19 -21 -20 -38 -23 -568 -2
-399 1 -554 9 -575 25 -61 117 -73 159 -20 19 25 20 38 20 419 0 217 3 394 8
394 4 -1 153 -187 332 -415 326 -415 344 -435 402 -435 10 0 33 7 49 16 59 30
59 32 59 607 0 358 -4 534 -11 556 -21 60 -97 79 -148 35 l-31 -26 -2 -406 -3
-406 -328 420 c-201 256 -339 424 -355 431 -31 14 -68 15 -97 4z"/>
<path d="M17690 9493 c-40 -15 -60 -46 -60 -94 0 -40 4 -51 31 -73 30 -26 33
-26 190 -26 l159 0 0 -475 c0 -522 0 -519 60 -550 36 -19 61 -19 105 -1 66 28
65 22 65 551 l0 475 160 0 160 0 31 28 c42 37 44 102 4 141 l-25 26 -433 2
c-237 1 -439 -1 -447 -4z"/>
</g>
</svg>
